# xmcd
#
# Track frame offsets: 
#        150
#        17192
#        43136
#        66085
#        85746
#        105863
#        130073
#        153419
#        172084
#        200630
#        216790
#        233849
#        252270
#        272760
#        291909
#        309832
#        328152
#
# Disc length: 4617 seconds
#
# Revision: 0
# Processed by: cddbd v1.5.2PL0 Copyright (c) Steve Scherf et al.
# Submitted via: ExactAudioCopy v0.95a3
#
DISCID=f2120711
DTITLE=Михаил Шуфутинский ч. 1 - Grand Collection
DYEAR=1900
DGENRE=шансон
TTITLE0=Тополя
TTITLE1=Душа болит
TTITLE2=Две свечи
TTITLE3=Пальма-де-майорка
TTITLE4=Наливай, поговорим
TTITLE5=Старое кафе
TTITLE6=Свечи
TTITLE7=Это очень легко
TTITLE8=3-е сентября
TTITLE9=Марина
TTITLE10=Гадалка
TTITLE11=Кубики
TTITLE12=Моя Одесса
TTITLE13=Журавлик
TTITLE14=Зачем вам это знать?
TTITLE15=Вязаный жакет
TTITLE16=Левый берег дона
EXTD=
EXTT0=
EXTT1=
EXTT2=
EXTT3=
EXTT4=
EXTT5=
EXTT6=
EXTT7=
EXTT8=
EXTT9=
EXTT10=
EXTT11=
EXTT12=
EXTT13=
EXTT14=
EXTT15=
EXTT16=
PLAYORDER=
